<?xml version="1.0" encoding="UTF-8" standalone="no"?>
<!-- Created with Inkscape (http://www.inkscape.org/) -->

<svg
   xmlns:dc="http://purl.org/dc/elements/1.1/"
   xmlns:cc="http://creativecommons.org/ns#"
   xmlns:rdf="http://www.w3.org/1999/02/22-rdf-syntax-ns#"
   xmlns:svg="http://www.w3.org/2000/svg"
   xmlns="http://www.w3.org/2000/svg"
   xmlns:xlink="http://www.w3.org/1999/xlink"
   xmlns:sodipodi="http://sodipodi.sourceforge.net/DTD/sodipodi-0.dtd"
   xmlns:inkscape="http://www.inkscape.org/namespaces/inkscape"
   width="1024"
   height="1024"
   viewBox="0 0 270.93333 270.93334"
   version="1.1"
   id="svg8"
   inkscape:version="0.92.5 (2060ec1f9f, 2020-04-08)"
   sodipodi:docname="Teilen_logo.svg">
  <defs
     id="defs2">
    <linearGradient
       id="linearGradient1032"
       inkscape:collect="always">
      <stop
         id="stop1028"
         offset="0"
         style="stop-color:#f04e5d;stop-opacity:1" />
      <stop
         id="stop1030"
         offset="1"
         style="stop-color:#eec300;stop-opacity:1" />
    </linearGradient>
    <linearGradient
       inkscape:collect="always"
       xlink:href="#linearGradient1032"
       id="linearGradient1024"
       x1="2217.1428"
       y1="1173.9286"
       x2="1327.6428"
       y2="260"
       gradientUnits="userSpaceOnUse" />
    <linearGradient
       inkscape:collect="always"
       xlink:href="#linearGradient1032"
       id="linearGradient1026"
       x1="17.924984"
       y1="12.533253"
       x2="213.57751"
       y2="233.89525"
       gradientUnits="userSpaceOnUse" />
  </defs>
  <sodipodi:namedview
     id="base"
     pagecolor="#ffffff"
     bordercolor="#666666"
     borderopacity="1.0"
     inkscape:pageopacity="0.0"
     inkscape:pageshadow="2"
     inkscape:zoom="0.35"
     inkscape:cx="-131.42857"
     inkscape:cy="548.57143"
     inkscape:document-units="mm"
     inkscape:current-layer="g906"
     showgrid="false"
     units="px"
     inkscape:window-width="1920"
     inkscape:window-height="1016"
     inkscape:window-x="0"
     inkscape:window-y="27"
     inkscape:window-maximized="1" />
  <metadata
     id="metadata5">
    <rdf:RDF>
      <cc:Work
         rdf:about="">
        <dc:format>image/svg+xml</dc:format>
        <dc:type
           rdf:resource="http://purl.org/dc/dcmitype/StillImage" />
        <dc:title></dc:title>
      </cc:Work>
    </rdf:RDF>
  </metadata>
  <g
     inkscape:label="Layer 1"
     inkscape:groupmode="layer"
     id="layer1"
     transform="translate(0,-26.06665)">
    <g
       id="g906"
       transform="matrix(0.26458333,0,0,0.26458333,-337.91071,-26.547617)">
      <g
         style="stroke:none;stroke-opacity:1;fill:url(#linearGradient1026);fill-opacity:1"
         id="g900"
         transform="matrix(2.2999767,0,0,2.297465,1626.632,534.06244)">
        <g
           style="stroke:none;stroke-opacity:1;fill:url(#linearGradient1026);fill-opacity:1"
           id="g835">
	<path
   style="stroke:none;stroke-opacity:1;fill:url(#linearGradient1026);fill-opacity:1"
   id="path815"
   d="m 114.512,51.743 c -32.669,0 -59.248,26.579 -59.248,59.248 0,13.37 4.384,26.003 12.672,36.527 1.636,2.083 3.355,4.077 5.175,6.188 l 0.1,0.116 c 5.568,6.46 11.325,13.142 13.475,21.01 0.486,1.803 0.555,5.26 0.527,7.923 v 4.526 c 0,4.142 3.358,7.5 7.5,7.5 h 39.272 c 4.142,0 7.5,-3.358 7.5,-7.5 v -4.579 c -0.025,-3.478 0.155,-6.016 0.518,-7.333 2.162,-7.816 8.542,-15.321 14.222,-22.001 l 0.245,-0.288 c 1.639,-1.926 3.188,-3.745 4.598,-5.538 8.3,-10.53 12.687,-23.169 12.687,-36.551 -0.001,-32.669 -26.577,-59.248 -59.243,-59.248 z m 34.769,86.521 c -1.235,1.571 -2.691,3.282 -4.233,5.093 l -0.302,0.355 c -6.635,7.804 -14.155,16.649 -17.203,27.667 -0.431,1.564 -0.91,3.904 -1.032,8.402 h -24.312 c -0.104,-4.777 -0.591,-7.227 -1.036,-8.877 -3.05,-11.164 -10.557,-19.875 -16.59,-26.876 l -0.101,-0.118 c -1.705,-1.977 -3.315,-3.845 -4.746,-5.665 -6.19,-7.86 -9.462,-17.285 -9.462,-27.254 0,-24.398 19.85,-44.248 44.248,-44.248 24.395,0 44.242,19.85 44.242,44.248 0,9.98 -3.274,19.408 -9.473,27.273 z"
   inkscape:connector-curvature="0" />

	<path
   style="stroke:none;stroke-opacity:1;fill:url(#linearGradient1026);fill-opacity:1"
   id="path817"
   d="M 133.984,196.91 H 94.713 c -4.142,0 -7.5,3.358 -7.5,7.5 0,4.142 3.358,7.5 7.5,7.5 h 39.272 c 4.142,0 7.5,-3.358 7.5,-7.5 0,-4.142 -3.359,-7.5 -7.501,-7.5 z"
   inkscape:connector-curvature="0" />

	<path
   style="stroke:none;stroke-opacity:1;fill:url(#linearGradient1026);fill-opacity:1"
   id="path819"
   d="m 124.166,214.018 h -19.635 c -4.142,0 -7.5,3.358 -7.5,7.5 0,4.142 3.358,7.5 7.5,7.5 h 19.635 c 4.142,0 7.5,-3.358 7.5,-7.5 0,-4.142 -3.358,-7.5 -7.5,-7.5 z"
   inkscape:connector-curvature="0" />

	<path
   style="stroke:none;stroke-opacity:1;fill:url(#linearGradient1026);fill-opacity:1"
   id="path821"
   d="m 218,103.491 h -25.873 c -4.142,0 -7.5,3.358 -7.5,7.5 0,4.142 3.358,7.5 7.5,7.5 H 218 c 4.142,0 7.5,-3.358 7.5,-7.5 0,-4.142 -3.358,-7.5 -7.5,-7.5 z"
   inkscape:connector-curvature="0" />

	<path
   style="stroke:none;stroke-opacity:1;fill:url(#linearGradient1026);fill-opacity:1"
   id="path823"
   d="m 44.394,110.991 c 0,-4.142 -3.358,-7.5 -7.5,-7.5 H 11.018 c -4.142,0 -7.5,3.358 -7.5,7.5 0,4.142 3.358,7.5 7.5,7.5 h 25.876 c 4.142,0 7.5,-3.358 7.5,-7.5 z"
   inkscape:connector-curvature="0" />

	<path
   style="stroke:none;stroke-opacity:1;fill:url(#linearGradient1026);fill-opacity:1"
   id="path825"
   d="m 114.51,40.881 c 4.142,0 7.5,-3.358 7.5,-7.5 V 7.5 c 0,-4.142 -3.358,-7.5 -7.5,-7.5 -4.142,0 -7.5,3.358 -7.5,7.5 v 25.881 c 0,4.142 3.358,7.5 7.5,7.5 z"
   inkscape:connector-curvature="0" />

	<path
   style="stroke:none;stroke-opacity:1;fill:url(#linearGradient1026);fill-opacity:1"
   id="path827"
   d="m 174.693,160.569 c -2.929,-2.929 -7.677,-2.93 -10.607,-10e-4 -2.929,2.929 -2.93,7.677 -0.001,10.607 l 18.296,18.301 c 1.465,1.465 3.384,2.197 5.304,2.197 1.919,0 3.838,-0.732 5.303,-2.196 2.929,-2.929 2.93,-7.677 0.001,-10.607 z"
   inkscape:connector-curvature="0" />

	<path
   style="stroke:none;stroke-opacity:1;fill:url(#linearGradient1026);fill-opacity:1"
   id="path829"
   d="m 54.317,61.408 c 1.465,1.465 3.384,2.198 5.304,2.198 1.919,0 3.838,-0.732 5.302,-2.196 2.93,-2.929 2.93,-7.677 0.002,-10.606 L 46.636,32.508 c -2.929,-2.93 -7.677,-2.93 -10.606,-0.002 -2.93,2.929 -2.93,7.677 -0.002,10.606 z"
   inkscape:connector-curvature="0" />

	<path
   style="stroke:none;stroke-opacity:1;fill:url(#linearGradient1026);fill-opacity:1"
   id="path831"
   d="M 54.325,160.569 36.028,178.87 c -2.929,2.929 -2.928,7.678 0.001,10.606 1.464,1.464 3.384,2.196 5.303,2.196 1.919,0 3.839,-0.732 5.304,-2.197 l 18.297,-18.301 c 2.929,-2.929 2.928,-7.678 -0.001,-10.606 -2.929,-2.928 -7.678,-2.928 -10.607,10e-4 z"
   inkscape:connector-curvature="0" />

	<path
   style="stroke:none;stroke-opacity:1;fill:url(#linearGradient1026);fill-opacity:1"
   id="path833"
   d="m 169.393,63.605 c 1.919,0 3.839,-0.732 5.304,-2.197 l 18.292,-18.295 c 2.929,-2.929 2.928,-7.678 -0.001,-10.606 -2.929,-2.929 -7.678,-2.929 -10.606,0.001 L 164.09,50.803 c -2.929,2.929 -2.928,7.678 0.001,10.606 1.463,1.465 3.382,2.196 5.302,2.196 z"
   inkscape:connector-curvature="0" />

</g>
        <g
           style="stroke:none;stroke-opacity:1;fill:url(#linearGradient1026);fill-opacity:1"
           id="g837">
</g>
        <g
           style="stroke:none;stroke-opacity:1;fill:url(#linearGradient1026);fill-opacity:1"
           id="g839">
</g>
        <g
           style="stroke:none;stroke-opacity:1;fill:url(#linearGradient1026);fill-opacity:1"
           id="g841">
</g>
        <g
           style="stroke:none;stroke-opacity:1;fill:url(#linearGradient1026);fill-opacity:1"
           id="g843">
</g>
        <g
           style="stroke:none;stroke-opacity:1;fill:url(#linearGradient1026);fill-opacity:1"
           id="g845">
</g>
        <g
           style="stroke:none;stroke-opacity:1;fill:url(#linearGradient1026);fill-opacity:1"
           id="g847">
</g>
        <g
           style="stroke:none;stroke-opacity:1;fill:url(#linearGradient1026);fill-opacity:1"
           id="g849">
</g>
        <g
           style="stroke:none;stroke-opacity:1;fill:url(#linearGradient1026);fill-opacity:1"
           id="g851">
</g>
        <g
           style="stroke:none;stroke-opacity:1;fill:url(#linearGradient1026);fill-opacity:1"
           id="g853">
</g>
        <g
           style="stroke:none;stroke-opacity:1;fill:url(#linearGradient1026);fill-opacity:1"
           id="g855">
</g>
        <g
           style="stroke:none;stroke-opacity:1;fill:url(#linearGradient1026);fill-opacity:1"
           id="g857">
</g>
        <g
           style="stroke:none;stroke-opacity:1;fill:url(#linearGradient1026);fill-opacity:1"
           id="g859">
</g>
        <g
           style="stroke:none;stroke-opacity:1;fill:url(#linearGradient1026);fill-opacity:1"
           id="g861">
</g>
        <g
           style="stroke:none;stroke-opacity:1;fill:url(#linearGradient1026);fill-opacity:1"
           id="g863">
</g>
        <g
           style="stroke:none;stroke-opacity:1;fill:url(#linearGradient1026);fill-opacity:1"
           id="g865">
</g>
      </g>
      <path
         style="stroke:#000000;stroke-opacity:1;fill:url(#linearGradient1024);fill-opacity:1"
         inkscape:connector-curvature="0"
         d="M 2202.8571,1116.7857 V 521.78572 c 0,-4.7 -1.7,-8.8 -5.2,-12.3 -3.5,-3.5 -7.6,-5.2 -12.3,-5.2 h -595 c -4.7,0 -8.8,1.7 -12.3,5.2 -3.5,3.5 -5.2,7.6 -5.2,12.3 v 594.99998 c 0,4.7 1.7,8.8 5.2,12.3 3.5,3.5 7.6,5.2 12.3,5.2 h 595 c 4.7,0 8.8,-1.7 12.3,-5.2 3.5,-3.5 5.2,-7.6 5.2,-12.3 z m 70,-594.99998 v 594.99998 c 0,24.1 -8.6,44.7 -25.7,61.8 -17.1,17.1 -37.7,25.7 -61.8,25.7 h -595 c -24.1,0 -44.7,-8.6 -61.8,-25.7 -17.1,-17.1 -25.7,-37.7 -25.7,-61.8 V 521.78572 c 0,-24.1 8.6,-44.7 25.7,-61.8 17.1,-17.1 37.7,-25.7 61.8,-25.7 h 595 c 24.1,0 44.7,8.6 61.8,25.7 17.1,17.1 25.7,37.7 25.7,61.8 z m -210,-210.00001 v 87.50001 h -70 v -87.50001 c 0,-4.7 -1.7,-8.8 -5.2,-12.29999 -3.5,-3.5 -7.6,-5.2 -12.3,-5.2 h -595 c -4.7,0 -8.8,1.7 -12.3,5.2 -3.5,3.49999 -5.2,7.59999 -5.2,12.29999 v 595.00001 c 0,4.7 1.7,8.8 5.2,12.3 3.5,3.5 7.6,5.2 12.3,5.2 h 87.5 v 69.99995 h -87.5 c -24.1,0 -44.7,-8.59995 -61.8,-25.69995 -17.1,-17.1 -25.7,-37.7 -25.7,-61.8 V 311.78571 c 0,-24.09999 8.6,-44.69999 25.7,-61.79999 17.1,-17.1 37.7,-25.7 61.8,-25.7 h 595 c 24.1,0 44.7,8.6 61.8,25.7 17.1,17.1 25.7,37.7 25.7,61.79999 z"
         id="path904" />
    </g>
  </g>
</svg>
