<?xml version="1.0" encoding="utf-8"?>
<!-- Generator: Adobe Illustrator 25.2.1, SVG Export Plug-In . SVG Version: 6.00 Build 0)  -->
<svg version="1.1"
	 id="svg8" inkscape:version="0.92.5 (2060ec1f9f, 2020-04-08)" sodipodi:docname="Teilen_logo.svg" xmlns:cc="http://creativecommons.org/ns#" xmlns:dc="http://purl.org/dc/elements/1.1/" xmlns:inkscape="http://www.inkscape.org/namespaces/inkscape" xmlns:rdf="http://www.w3.org/1999/02/22-rdf-syntax-ns#" xmlns:sodipodi="http://sodipodi.sourceforge.net/DTD/sodipodi-0.dtd" xmlns:svg="http://www.w3.org/2000/svg"
	 xmlns="http://www.w3.org/2000/svg" xmlns:xlink="http://www.w3.org/1999/xlink" x="0px" y="0px" viewBox="0 0 1024 1024"
	 style="enable-background:new 0 0 1024 1024;" xml:space="preserve">
<style type="text/css">
	.st0{fill:url(#path815_1_);}
	.st1{fill:url(#path817_1_);}
	.st2{fill:url(#path819_1_);}
	.st3{fill:url(#path821_1_);}
	.st4{fill:url(#path823_1_);}
	.st5{fill:url(#path825_1_);}
	.st6{fill:url(#path827_1_);}
	.st7{fill:url(#path829_1_);}
	.st8{fill:url(#path831_1_);}
	.st9{fill:url(#path833_1_);}
	.st10{fill:url(#path904_1_);stroke:#000000;}
	.st11{fill:#EC663B;stroke:#EC663B;stroke-width:3;stroke-miterlimit:10;}
	.st12{font-family:'Noteworthy-Light';}
	.st13{font-size:119.6896px;}
</style>
<sodipodi:namedview  bordercolor="#666666" borderopacity="1.0" id="base" inkscape:current-layer="g906" inkscape:cx="-131.42857" inkscape:cy="548.57143" inkscape:document-units="mm" inkscape:pageopacity="0.0" inkscape:pageshadow="2" inkscape:window-height="1016" inkscape:window-maximized="1" inkscape:window-width="1920" inkscape:window-x="0" inkscape:window-y="27" inkscape:zoom="0.35" pagecolor="#ffffff" showgrid="false" units="px">
	</sodipodi:namedview>
<g id="layer1" transform="translate(0,-26.06665)" inkscape:groupmode="layer" inkscape:label="Layer 1">
	<g id="g906" transform="matrix(0.26458333,0,0,0.26458333,-337.91071,-26.547617)">
		<g id="g900" transform="matrix(2.2999767,0,0,2.297465,1626.632,534.06244)">
			<g id="g835">
				
					<linearGradient id="path815_1_" gradientUnits="userSpaceOnUse" x1="-20.651" y1="1512.9526" x2="12.2714" y2="1475.704" gradientTransform="matrix(2.3 0 0 -2.2975 314.692 3740.501)">
					<stop  offset="0" style="stop-color:#F04E5D"/>
					<stop  offset="1" style="stop-color:#EEC300"/>
				</linearGradient>
				<path id="path815" inkscape:connector-curvature="0" class="st0" d="M328.5,289c-20.3,0-36.8,17.1-36.8,38.1
					c0,8.6,2.7,16.7,7.9,23.5c1,1.3,2.1,2.6,3.2,4l0.1,0.1c3.5,4.2,7,8.4,8.4,13.5c0.3,1.2,0.3,3.4,0.3,5.1v2.9
					c0,2.7,2.1,4.8,4.7,4.8h24.4c2.6,0,4.7-2.2,4.7-4.8v-2.9c0-2.2,0.1-3.9,0.3-4.7c1.3-5,5.3-9.8,8.8-14.1l0.2-0.2
					c1-1.2,2-2.4,2.9-3.6c5.1-6.8,7.9-14.9,7.9-23.5C365.3,306,348.8,289,328.5,289L328.5,289z M350.1,344.6c-0.8,1-1.7,2.1-2.6,3.3
					l-0.2,0.2c-4.1,5-8.8,10.7-10.7,17.8c-0.3,1-0.6,2.5-0.6,5.4h-15.1c-0.1-3.1-0.4-4.6-0.6-5.7c-1.9-7.2-6.6-12.8-10.3-17.3
					l-0.1-0.1c-1.1-1.3-2.1-2.5-2.9-3.6c-3.8-5.1-5.9-11.1-5.9-17.5c0-15.7,12.3-28.4,27.5-28.4c15.1,0,27.5,12.8,27.5,28.4
					C355.9,333.5,353.9,339.5,350.1,344.6L350.1,344.6z"/>
				
					<linearGradient id="path817_1_" gradientUnits="userSpaceOnUse" x1="-31.4119" y1="1501.9369" x2="0.9468" y2="1465.3262" gradientTransform="matrix(2.3 0 0 -2.2975 314.692 3740.501)">
					<stop  offset="0" style="stop-color:#F04E5D"/>
					<stop  offset="1" style="stop-color:#EEC300"/>
				</linearGradient>
				<path id="path817" inkscape:connector-curvature="0" class="st1" d="M340.6,382.3h-24.4c-2.6,0-4.7,2.2-4.7,4.8s2.1,4.8,4.7,4.8
					h24.4c2.6,0,4.7-2.2,4.7-4.8S343.1,382.3,340.6,382.3z"/>
				
					<linearGradient id="path819_1_" gradientUnits="userSpaceOnUse" x1="-33.8556" y1="1499.918" x2="-1.3856" y2="1463.1813" gradientTransform="matrix(2.3 0 0 -2.2975 314.692 3740.501)">
					<stop  offset="0" style="stop-color:#F04E5D"/>
					<stop  offset="1" style="stop-color:#EEC300"/>
				</linearGradient>
				<path id="path819" inkscape:connector-curvature="0" class="st2" d="M334.5,393.3h-12.2c-2.6,0-4.7,2.2-4.7,4.8s2.1,4.8,4.7,4.8
					h12.2c2.6,0,4.7-2.2,4.7-4.8S337.1,393.3,334.5,393.3z"/>
				
					<linearGradient id="path821_1_" gradientUnits="userSpaceOnUse" x1="-5.2271" y1="1526.1353" x2="27.1978" y2="1489.4496" gradientTransform="matrix(2.3 0 0 -2.2975 314.692 3740.501)">
					<stop  offset="0" style="stop-color:#F04E5D"/>
					<stop  offset="1" style="stop-color:#EEC300"/>
				</linearGradient>
				<path id="path821" inkscape:connector-curvature="0" class="st3" d="M392.7,322.2h-16.1c-2.6,0-4.7,2.2-4.7,4.8s2.1,4.8,4.7,4.8
					h16.1c2.6,0,4.7-2.2,4.7-4.8S395.3,322.2,392.7,322.2z"/>
				
					<linearGradient id="path823_1_" gradientUnits="userSpaceOnUse" x1="-32.4524" y1="1501.634" x2="-2.749500e-02" y2="1464.9484" gradientTransform="matrix(2.3 0 0 -2.2975 314.692 3740.501)">
					<stop  offset="0" style="stop-color:#F04E5D"/>
					<stop  offset="1" style="stop-color:#EEC300"/>
				</linearGradient>
				<path id="path823" inkscape:connector-curvature="0" class="st4" d="M285,327c0-2.7-2.1-4.8-4.7-4.8h-16.1
					c-2.6,0-4.7,2.2-4.7,4.8s2.1,4.8,4.7,4.8h16.1C282.9,331.9,285,329.7,285,327z"/>
				
					<linearGradient id="path825_1_" gradientUnits="userSpaceOnUse" x1="-6.8488" y1="1525.639" x2="26.2086" y2="1488.2377" gradientTransform="matrix(2.3 0 0 -2.2975 314.692 3740.501)">
					<stop  offset="0" style="stop-color:#F04E5D"/>
					<stop  offset="1" style="stop-color:#EEC300"/>
				</linearGradient>
				<path id="path825" inkscape:connector-curvature="0" class="st5" d="M328.5,282c2.6,0,4.7-2.2,4.7-4.8v-16.6
					c0-2.7-2.1-4.8-4.7-4.8c-2.6,0-4.7,2.2-4.7,4.8v16.6C323.8,279.8,325.9,282,328.5,282z"/>
				
					<linearGradient id="path827_1_" gradientUnits="userSpaceOnUse" x1="-18.2785" y1="1514.8969" x2="14.4701" y2="1477.845" gradientTransform="matrix(2.3 0 0 -2.2975 314.692 3740.501)">
					<stop  offset="0" style="stop-color:#F04E5D"/>
					<stop  offset="1" style="stop-color:#EEC300"/>
				</linearGradient>
				<path id="path827" inkscape:connector-curvature="0" class="st6" d="M365.8,358.9c-1.8-1.9-4.8-1.9-6.6,0
					c-1.8,1.9-1.8,4.9,0,6.8l11.4,11.8c0.9,0.9,2.1,1.4,3.3,1.4c1.2,0,2.4-0.5,3.3-1.4c1.8-1.9,1.8-4.9,0-6.8L365.8,358.9z"/>
				
					<linearGradient id="path829_1_" gradientUnits="userSpaceOnUse" x1="-19.8976" y1="1513.4336" x2="12.851" y2="1476.3817" gradientTransform="matrix(2.3 0 0 -2.2975 314.692 3740.501)">
					<stop  offset="0" style="stop-color:#F04E5D"/>
					<stop  offset="1" style="stop-color:#EEC300"/>
				</linearGradient>
				<path id="path829" inkscape:connector-curvature="0" class="st7" d="M291.1,295.2c0.9,0.9,2.1,1.4,3.3,1.4
					c1.2,0,2.4-0.5,3.3-1.4c1.8-1.9,1.8-4.9,0-6.8l-11.3-11.8c-1.8-1.9-4.8-1.9-6.6,0c-1.8,1.9-1.8,4.9,0,6.8L291.1,295.2z"/>
				
					<linearGradient id="path831_1_" gradientUnits="userSpaceOnUse" x1="-38.1088" y1="1498.2297" x2="-4.441" y2="1460.1378" gradientTransform="matrix(2.3 0 0 -2.2975 314.692 3740.501)">
					<stop  offset="0" style="stop-color:#F04E5D"/>
					<stop  offset="1" style="stop-color:#EEC300"/>
				</linearGradient>
				<path id="path831" inkscape:connector-curvature="0" class="st8" d="M291.2,358.9l-11.4,11.8c-1.8,1.9-1.8,4.9,0,6.8
					c0.9,0.9,2.1,1.4,3.3,1.4c1.2,0,2.4-0.5,3.3-1.4l11.4-11.8c1.8-1.9,1.8-4.9,0-6.8C295.9,357,293,357,291.2,358.9z"/>
				
					<linearGradient id="path833_1_" gradientUnits="userSpaceOnUse" x1="-1.4747" y1="1531.6969" x2="32.193" y2="1493.6051" gradientTransform="matrix(2.3 0 0 -2.2975 314.692 3740.501)">
					<stop  offset="0" style="stop-color:#F04E5D"/>
					<stop  offset="1" style="stop-color:#EEC300"/>
				</linearGradient>
				<path id="path833" inkscape:connector-curvature="0" class="st9" d="M362.5,296.6c1.2,0,2.4-0.5,3.3-1.4l11.3-11.8
					c1.8-1.9,1.8-4.9,0-6.8c-1.8-1.9-4.8-1.9-6.6,0l-11.3,11.8c-1.8,1.9-1.8,4.9,0,6.8C360.2,296.1,361.4,296.6,362.5,296.6z"/>
			</g>
			<g id="g837">
			</g>
			<g id="g839">
			</g>
			<g id="g841">
			</g>
			<g id="g843">
			</g>
			<g id="g845">
			</g>
			<g id="g847">
			</g>
			<g id="g849">
			</g>
			<g id="g851">
			</g>
			<g id="g853">
			</g>
			<g id="g855">
			</g>
			<g id="g857">
			</g>
			<g id="g859">
			</g>
			<g id="g861">
			</g>
			<g id="g863">
			</g>
			<g id="g865">
			</g>
		</g>
		
			<linearGradient id="path904_1_" gradientUnits="userSpaceOnUse" x1="7421.3262" y1="1984.7299" x2="7272.6265" y2="2137.5134" gradientTransform="matrix(1 0 0 -1 -4827.0024 3508.3936)">
			<stop  offset="0" style="stop-color:#F04E5D"/>
			<stop  offset="1" style="stop-color:#EEC300"/>
		</linearGradient>
		<path id="path904" inkscape:connector-curvature="0" class="st10" d="M2576.3,1496.1v-382.5c0-3-1.1-5.7-3.2-7.9s-4.7-3.3-7.6-3.3
			h-369.2c-2.9,0-5.5,1.1-7.6,3.3s-3.2,4.9-3.2,7.9v382.5c0,3,1.1,5.7,3.2,7.9s4.7,3.3,7.6,3.3h369.2c2.9,0,5.5-1.1,7.6-3.3
			S2576.3,1499.1,2576.3,1496.1z M2619.7,1113.6v382.5c0,15.5-5.3,28.7-15.9,39.7s-23.4,16.5-38.3,16.5h-369.2
			c-15,0-27.7-5.5-38.3-16.5c-10.6-11-15.9-24.2-15.9-39.7v-382.5c0-15.5,5.3-28.7,15.9-39.7c10.6-11,23.4-16.5,38.3-16.5h369.2
			c15,0,27.7,5.5,38.3,16.5C2614.4,1084.9,2619.7,1098.1,2619.7,1113.6L2619.7,1113.6z M2489.4,978.6v56.2H2446v-56.2
			c0-3-1.1-5.7-3.2-7.9s-4.7-3.3-7.6-3.3H2066c-2.9,0-5.5,1.1-7.6,3.3s-3.2,4.9-3.2,7.9v382.5c0,3,1.1,5.7,3.2,7.9s4.7,3.3,7.6,3.3
			h54.3v45H2066c-15,0-27.7-5.5-38.3-16.5c-10.6-11-15.9-24.2-15.9-39.7V978.6c0-15.5,5.3-28.7,15.9-39.7
			c10.6-11,23.4-16.5,38.3-16.5h369.2c15,0,27.7,5.5,38.3,16.5C2484.1,949.9,2489.4,963.1,2489.4,978.6L2489.4,978.6z"/>
	</g>
</g>
<text transform="matrix(1.5193 0 0 1 355.221 394.8797)" class="st11 st12 st13">Teilen</text>
</svg>
